# xmcd
#
# Track frame offsets:
#	150
#	4719
#	22745
#	34084
#	55279
#	67748
#	80139
#	99824
#	120954
#	127909
#	139415
#	154760
#	183847
#	213323
#	226919
#	242172
#	257534
#	279569
#
# Disc length: 3800 seconds
# Revision: 2
# Processed by: cddbd v1.5.2PL0 Copyright (c) Steve Scherf et al.
# Submitted via: dBpowerAMP V12.0
#
DISCID=df0ed612
DTITLE=R.L. Burnside - Well Well Well (1936-93)
DYEAR=2001
DGENRE=Blues
TTITLE0=Charleston Interview
TTITLE1=How Many More Years
TTITLE2=Goin' Down South
TTITLE3=Staggolee
TTITLE4=I Can't Be Satisfied
TTITLE5=Boogie Chillen
TTITLE6=Nightmare Blues
TTITLE7=Rollin' and Tumblin'
TTITLE8=Grazing Grass Rap
TTITLE9=Last Night
TTITLE10=Mellow Peaches
TTITLE11=44 Pistol
TTITLE12=Bad Luck Monkey Rap
TTITLE13=My Babe
TTITLE14=Poor Boy
TTITLE15=Just Like a Woman
TTITLE16=Goin' Away Baby
TTITLE17=Mojo Hand
EXTD=
EXTT0=
EXTT1=
EXTT2=
EXTT3=
EXTT4=
EXTT5=
EXTT6=
EXTT7=
EXTT8=
EXTT9=
EXTT10=
EXTT11=
EXTT12=
EXTT13=
EXTT14=
EXTT15=
EXTT16=
EXTT17=
PLAYORDER=
